PathFileType	4	(X/Y/Z)	RBDS001\RBDS001runT45.trc
DataRate	CameraRate	NumFrames	NumMarkers	Units	OrigDataRate	OrigDataStartFrame	OrigNumFrames
150.000000	150.000000	5	33	mm	150.000000	1687	4500
Frame#	Time	L.ASIS			L.Heel.Bottom			L.Heel.Lateral			L.Heel.Top			L.Iliac.Crest			L.MT1			L.MT5			L.PSIS			L.Shank.Bottom.Lateral			L.Shank.Bottom.Medial			L.Shank.Top.Lateral			L.Shank.Top.Medial			L.Thigh.Bottom.Lateral			L.Thigh.Bottom.Medial			L.Thigh.Top.Lateral			L.Thigh.Top.Medial			R.ASIS			R.ASY			R.Heel.Bottom			R.Heel.Lateral			R.Heel.Top			R.Iliac.Crest			R.MT1			R.MT5			R.PSIS			R.Shank.Bottom.Lateral			R.Shank.Bottom.Medial			R.Shank.Top.Lateral			R.Shank.Top.Medial			R.Thigh.Bottom.Lateral			R.Thigh.Bottom.Medial			R.Thigh.Top.Lateral			R.Thigh.Top.Medial			
		X1	Y1	Z1	X2	Y2	Z2	X3	Y3	Z3	X4	Y4	Z4	X5	Y5	Z5	X6	Y6	Z6	X7	Y7	Z7	X8	Y8	Z8	X9	Y9	Z9	X10	Y10	Z10	X11	Y11	Z11	X12	Y12	Z12	X13	Y13	Z13	X14	Y14	Z14	X15	Y15	Z15	X16	Y16	Z16	X17	Y17	Z17	X18	Y18	Z18	X19	Y19	Z19	X20	Y20	Z20	X21	Y21	Z21	X22	Y22	Z22	X23	Y23	Z23	X24	Y24	Z24	X25	Y25	Z25	X26	Y26	Z26	X27	Y27	Z27	X28	Y28	Z28	X29	Y29	Z29	X30	Y30	Z30	X31	Y31	Z31	X32	Y32	Z32	X33	Y33	Z33	

1688	11.24666666666667	2387.770526715072	1031.848912885657	922.9798392860805	2221.921524755905	316.4748675091188	981.6380326695903	2247.00687626403	310.6135490731125	936.241828790041	2261.074305289386	344.5578924369757	979.0336882943136	2332.10188958303	1101.858242075686	882.007669511436	2398.725471120923	170.8794118903681	983.0044481148541	2353.349570913516	193.4020020658312	886.6499666070034	2221.879577994082	1071.865088404813	979.7979413154909	2372.991860558419	379.2350767100843	909.0758018694977	2341.606470336431	403.8634017920755	941.8783715204703	2415.960489821663	446.7242653791172	894.7180654083235	2386.469047349594	474.8043912521465	929.506782027437	2520.18773965435	716.0017047154732	862.7951271572731	2484.846708404405	680.018294628293	915.8196790092301	2429.626764322726	777.7302694301629	848.0999294204066	2396.096701177833	744.9220896727676	898.6747044926749	2381.186525607282	997.6300569892288	1125.153769035863	131881088.2904478	240391587.2445683	-379783914.8593151	1740.879240111318	176.3031398500961	1012.042214770145	1770.450881797189	163.2728187983578	1056.24881048867	1779.246302877913	204.5197598855398	1018.819412667835	2344.912496134074	1077.985166501919	1150.234060075029	1917.574807965878	54.63898263704673	963.9925902676162	1887.876474800832	55.95590957320138	1070.179059039718	2226.497634725547	1069.103347903811	1056.403759024839	1888.75267042361	247.9156404007236	1077.161984133274	1858.047428367691	277.6632150575552	1043.647776523199	1930.064780597726	315.2744019353477	1097.319343118618	1899.589430760217	344.0111023324944	1063.005411169701	2152.57293017462	618.6963883427253	1133.475471187224	2096.799900687075	641.1896606495919	1089.430539274045	2174.528274631171	724.8235956341841	1155.021624044541	2123.060484412353	745.4064592399673	1111.296525398339	
1689	11.25333333333333	2389.142667098557	1035.818132933605	922.460365890495	2248.973894567161	290.8746640999912	986.0132328247905	2273.878483927225	286.5503622777966	940.3984791800746	2285.651996793342	322.005256576677	982.5251498646428	2333.15914707135	1105.804361592454	881.9583144511595	2437.160427946534	160.6547027279313	987.3516331840657	2388.761203235708	178.2439087755149	891.1337344221312	2224.574313732338	1075.724565716378	981.3002198179812	2394.113260377396	365.5740717450551	911.8761181757043	2361.285226398496	387.7558530912908	944.9452199050262	2431.798631800427	436.0850443965537	897.079067904187	2400.619597584731	461.9299898382669	932.1475989714742	2521.88967723172	720.2832539660903	864.4125946808393	2485.745472602538	683.1981697617654	916.0183076822735	2431.477749917725	782.1362592252713	849.5438932609187	2397.348140185959	748.6493524806797	899.1325200452201	2385.086139156528	999.9502597938936	1124.12940312602	132132035.4415963	240852109.8438184	-380511284.8866338	1727.853535656717	196.5410783861975	1012.64511798474	1755.490632649398	180.4086778543345	1057.034206159471	1768.414329034264	221.1356356892314	1020.425630295538	2350.15003280218	1080.903443937305	1150.019568450266	1894.0721258625	59.65149934206888	965.4661988602704	1862.859241415147	61.42178701237638	1071.200469030827	2230.32033465439	1072.980757172642	1057.9193759936	1874.163562319964	259.1102616396853	1079.095157754935	1843.979880170322	288.2656818799142	1044.484333524525	1915.37564460622	326.8154353889778	1098.626975831113	1885.304395702592	354.9783479565203	1063.369257299841	2143.747667195044	628.3169265007381	1133.527826912154	2088.706214913424	652.8952657111873	1089.648734577194	2169.703034821674	733.479303590429	1155.294734696508	2119.259244525394	756.0129809686646	1111.382449694437	
1690	11.26	2390.314740643628	1039.256978090568	921.7079332745586	2277.258226608487	265.6306713769353	989.9905826982138	2301.993418773506	262.8062868919833	944.2485910642421	2311.175195066377	299.5328487050298	985.7624669651278	2333.870811759821	1109.185497235628	881.7490788900321	2475.291098412741	151.8364673095907	991.9588581271295	2424.719132769341	164.2414284072224	895.7080742801909	2226.996989705396	1079.253820505577	982.6782434288409	2415.375365172732	351.8068369015818	914.6335779214858	2381.332694738009	371.4425978592834	948.0218942094024	2447.531010946613	424.8986618669442	899.3792951037234	2414.912347573009	448.3794614464358	934.8235535497116	2522.691635052954	723.1394361086227	865.911422048442	2485.486933058355	684.9499672288099	915.880387756177	2432.683034743276	785.5329975263326	850.9306988153959	2397.757576348312	751.3686335414393	899.3823170109898	2388.627772786424	1002.371580698969	1123.068325784334	132383300.7135596	241313220.2456692	-381239583.0368762	1716.177334040889	217.4659793500088	1013.36882393109	1741.730925996324	198.3804315249388	1057.868085942682	1758.688365906727	238.3702510626473	1022.074369449689	2354.825500179335	1083.884075186288	1149.78221031949	1871.356274146993	66.41703425480387	966.8937695892488	1838.66414684254	68.43579086387544	1072.082185714519	2233.834582340463	1076.700902264233	1059.294612887319	1860.790622675414	270.6278198810325	1080.960251374307	1831.174192003253	299.4072301852151	1045.436187380271	1902.236369673579	338.4386880504556	1099.945697432548	1872.614990368276	366.2380020298958	1063.908344333355	2136.423512502907	637.4488157155446	1133.669044700375	2082.146496852488	663.742442005769	1089.821846272651	2165.800012972315	741.6778633566754	1155.523999081626	2116.374691530668	765.8257552962397	1111.366284165183	
1691	11.26666666666667	2391.303237167826	1042.154092877474	920.8547925145466	2306.551118728091	240.9321599549707	993.5858211337264	2331.161227836649	239.6123601996608	947.8012799512343	2337.439172916038	277.3357402266086	988.7736598013369	2334.336091238445	1111.997275156888	881.4258670053266	2512.883331435437	144.5242704715871	996.7178332637837	2461.043951295457	151.6037642976061	900.2844239026447	2229.123530837816	1082.444752368653	983.8651190818009	2436.618313803106	338.0519441076791	917.3606381912873	2401.599089732096	355.0764263561782	951.1110278363191	2463.030375808663	413.2524570292322	901.6263077594321	2429.226400574008	434.2750419666021	937.5245366228954	2522.510898025414	724.4666556428693	867.2695461493079	2484.051037302354	685.2986227353781	915.5179263841744	2433.179885773945	787.814904389966	852.2241599910249	2397.308783455286	753.0710324961306	899.4847851077496	2391.714736376665	1004.888412044611	1122.082257570536	132634884.3078337	241774918.8250262	-381968809.9018077	1705.447405689254	238.8076731827334	1014.319339599581	1728.899413834413	216.9809652352469	1058.816136814828	1749.629176258151	256.0784079361151	1023.796371065408	2358.860525569014	1086.932510230144	1149.542998135162	1849.368945797181	75.05713038351684	968.1501359861871	1815.360383490848	77.11805135105037	1072.753748248703	2236.947446779583	1080.240602256174	1060.474020294548	1848.434664284012	282.4740777768874	1082.695595626673	1819.448624767657	311.151742809911	1046.484193567755	1890.526700402787	350.0688041670376	1101.230078922696	1861.427931771967	377.772206232237	1064.609214326621	2130.660589881534	645.763089158271	1133.898396633455	2077.145050561504	673.3893037881159	1089.944962893676	2162.832742089671	749.1533449130455	1155.720504983574	2114.356564051121	774.5697010912535	1111.282207569917	
1692	11.27333333333333	2392.136022221718	1044.527422300705	920.0464484524699	2336.596366304618	217.0110753364555	996.8739565607981	2361.124893617904	217.2210564854997	951.1132997626464	2364.214119044886	255.6470050122899	991.6180252745097	2334.681203755821	1114.271893600199	881.0411454082462	2549.67363242747	138.8043680347326	1001.49052485708	2497.447083321402	140.5012456654138	904.7751466448578	2230.951561950604	1085.305862529599	984.8020973459757	2457.658954078229	324.4525179104072	920.0695208734828	2421.907150641122	338.8312414919561	954.2176603665633	2478.152899820338	401.2666385940704	903.834221346094	2443.416343075628	419.76979629009	940.2449160215958	2521.260051314376	724.2018110470025	868.4815590055697	2481.429253584874	684.3195767134031	915.0825228277931	2432.902326596121	788.9038516720929	853.4019760187437	2395.991318964387	753.7845821490325	899.5286019446761	2394.282972689399	1007.486304209415	1121.278002773035	132886786.4259147	242237205.9567951	-382698966.0731937	1695.288093412879	260.3285993537073	1015.598435548823	1716.748179013833	236.0146051096496	1059.947901852221	1740.846253896256	274.1358271348586	1025.627584660524	2362.192049208229	1090.043024564179	1149.321939890112	1828.072342736975	85.62068724538274	969.1188808977965	1793.032399058214	87.52392537754845	1073.165667641966	2239.586988775246	1083.580377924426	1061.409895696183	1836.918993399922	294.672166138954	1084.258492144536	1808.645596750524	323.5577714703015	1047.607508342599	1880.117974391935	361.6630456006461	1102.443939296532	1851.642562892277	389.5731129830507	1065.451233602044	2126.483367959154	652.9782083616834	1134.21505507306	2073.694034086832	681.5613367126863	1090.022287429362	2160.80786192192	755.6748700755792	1155.908333707507	2113.154489952055	782.0215771275977	1111.179205512721	
